<?xml version="1.0" encoding="UTF-8"?><svg id="Layer_1" xmlns="http://www.w3.org/2000/svg" viewBox="0 0 512 512"><defs><style>.cls-1{fill:#fff;stroke-width:0px;}</style></defs><g id="Icon"><path class="cls-1" d="M257.75,64.76c105.51.92,190.74,87.52,189.96,193-.79,105.33-87.58,190.75-193,189.97-105.33-.79-190.96-87.79-189.95-193.01,1.01-105.6,87.64-190.87,193-189.95ZM397.76,256.5c.2-78.37-62.81-141.61-141.27-141.76-78.47-.15-141.64,62.78-141.74,141.21-.1,78.56,62.56,141.5,141.19,141.82,78.23.32,141.61-62.82,141.82-141.26Z"/><path class="cls-1" d="M211.18,229.85c1.96-18.64,3.32-36.86,5.96-54.89,2.15-14.68,21.05-25.78,35.11-21.71,27.16,7.85,33.9,15.3,34.02,43.42.05,13.59,9.34,11.96,16.32,12.12,16.43.37,33.27,8.77,35.99,19.73,3.63,14.63-4.56,32.47-18.69,40.63-3.3,1.91-6.68,3.69-13.54,7.47,8.64,7.39,17.5,12.91,23.48,20.67,5.84,7.57,12.12,17.39,12.17,26.26.09,15.69-9.96,28.18-25.59,31.37-13.3,2.71-27.62,1.49-36.39-12.43-.67-1.06-1.58-1.99-2.52-2.83-24.64-22.31-19.73-21.72-36.48,1.73-9.96,13.94-29.57,23.04-41.36,16.72-12.99-6.96-27.71-23.11-23.09-40.12,1.73-6.38,7.12-11.78,10.92-17.59,2.98-4.56,6.07-9.04,7.87-11.72-8.16-9.48-16.82-16.82-21.98-26.11-9.48-17.07-1.7-29.88,17.81-31.77,6.74-.65,13.55-.66,19.97-.94Z"/></g></svg>
