<svg id="RegulationPodcast-Icon-avatar" xmlns="http://www.w3.org/2000/svg" width="512" height="512" viewBox="0 0 512 512">
  <rect id="Frame" width="512" height="512" rx="256" fill="#fff"/>
  <g id="Icon">
    <path id="Path_41" data-name="Path 41" d="M257.75,64.76c105.51.92,190.74,87.52,189.96,193-.79,105.33-87.58,190.75-193,189.97-105.33-.79-190.96-87.79-189.95-193.01,1.01-105.6,87.64-190.87,193-189.95ZM397.76,256.5A141.505,141.505,0,1,0,255.94,397.77c78.23.32,141.61-62.82,141.82-141.26Z"/>
    <path id="Path_42" data-name="Path 42" d="M211.18,229.85c1.96-18.64,3.32-36.86,5.96-54.89,2.15-14.68,21.05-25.78,35.11-21.71,27.16,7.85,33.9,15.3,34.02,43.42.05,13.59,9.34,11.96,16.32,12.12,16.43.37,33.27,8.77,35.99,19.73,3.63,14.63-4.56,32.47-18.69,40.63-3.3,1.91-6.68,3.69-13.54,7.47,8.64,7.39,17.5,12.91,23.48,20.67,5.84,7.57,12.12,17.39,12.17,26.26.09,15.69-9.96,28.18-25.59,31.37-13.3,2.71-27.62,1.49-36.39-12.43a13.821,13.821,0,0,0-2.52-2.83c-24.64-22.31-19.73-21.72-36.48,1.73-9.96,13.94-29.57,23.04-41.36,16.72-12.99-6.96-27.71-23.11-23.09-40.12,1.73-6.38,7.12-11.78,10.92-17.59,2.98-4.56,6.07-9.04,7.87-11.72-8.16-9.48-16.82-16.82-21.98-26.11-9.48-17.07-1.7-29.88,17.81-31.77,6.74-.65,13.55-.66,19.97-.94Z"/>
  </g>
</svg>
